{
  "accessors": [
    {
      "bufferView": 2,
      "componentType": 5126,
      "count": 4,
      "max": [
        6.5,
        -7.994418144226074,
        -7.371211268036859e-07
      ],
      "min": [
        -6.5,
        -8.994418144226074,
        -7.371211268036859e-07
      ],
      "type": "VEC3"
    },
    {
      "bufferView": 2,
      "byteOffset": 48,
      "componentType": 5126,
      "count": 4,
      "max": [
        0.0,
        0.0,
        1.0
      ],
      "min": [
        0.0,
        0.0,
        1.0
      ],
      "type": "VEC3"
    },
    {
      "bufferView": 1,
      "componentType": 5126,
      "count": 4,
      "max": [
        1.0,
        1.0
      ],
      "min": [
        0.0,
        0.0
      ],
      "type": "VEC2"
    },
    {
      "bufferView": 0,
      "componentType": 5125,
      "count": 6,
      "type": "SCALAR"
    },
    {
      "bufferView": 2,
      "byteOffset": 96,
      "componentType": 5126,
      "count": 9567,
      "max": [
        1.6880650520324707,
        9.72957992553711,
        1.0063389539718628
      ],
      "min": [
        -1.6447869539260864,
        -9.740853309631348,
        5.424023129307898e-06
      ],
      "type": "VEC3"
    },
    {
      "bufferView": 2,
      "byteOffset": 114900,
      "componentType": 5126,
      "count": 9567,
      "max": [
        1.0,
        1.0,
        1.0
      ],
      "min": [
        -1.0,
        -1.0,
        -1.0
      ],
      "type": "VEC3"
    },
    {
      "bufferView": 1,
      "byteOffset": 32,
      "componentType": 5126,
      "count": 9567,
      "max": [
        1.0,
        1.0
      ],
      "min": [
        -1.0,
        0.0
      ],
      "type": "VEC2"
    },
    {
      "bufferView": 0,
      "byteOffset": 24,
      "componentType": 5125,
      "count": 27807,
      "type": "SCALAR"
    },
    {
      "bufferView": 2,
      "byteOffset": 229704,
      "componentType": 5126,
      "count": 8198,
      "max": [
        1.2747479677200317,
        -8.656129837036133,
        0.9069656729698181
      ],
      "min": [
        -1.2375119924545288,
        -9.397577285766602,
        0.018957290798425674
      ],
      "type": "VEC3"
    },
    {
      "bufferView": 2,
      "byteOffset": 328080,
      "componentType": 5126,
      "count": 8198,
      "max": [
        1.0,
        0.8672622442245483,
        0.9999522566795349
      ],
      "min": [
        -0.9999998211860657,
        -0.9999118447303772,
        -0.8593168258666992
      ],
      "type": "VEC3"
    },
    {
      "bufferView": 1,
      "byteOffset": 76568,
      "componentType": 5126,
      "count": 8198,
      "max": [
        1.0,
        1.0
      ],
      "min": [
        0.0,
        0.0
      ],
      "type": "VEC2"
    },
    {
      "bufferView": 0,
      "byteOffset": 111252,
      "componentType": 5125,
      "count": 23427,
      "type": "SCALAR"
    },
    {
      "bufferView": 2,
      "byteOffset": 426456,
      "componentType": 5126,
      "count": 3599,
      "max": [
        6.192192077636719,
        9.34887981414795,
        0.8756800293922424
      ],
      "min": [
        -6.186351776123047,
        -9.360153198242188,
        0.00027897951076738536
      ],
      "type": "VEC3"
    },
    {
      "bufferView": 2,
      "byteOffset": 469644,
      "componentType": 5126,
      "count": 3599,
      "max": [
        1.0,
        1.0,
        1.0
      ],
      "min": [
        -1.0,
        -1.0,
        -1.0
      ],
      "type": "VEC3"
    },
    {
      "bufferView": 1,
      "byteOffset": 142152,
      "componentType": 5126,
      "count": 3599,
      "max": [
        1.0,
        1.0
      ],
      "min": [
        -1.0,
        0.0
      ],
      "type": "VEC2"
    },
    {
      "bufferView": 0,
      "byteOffset": 204960,
      "componentType": 5125,
      "count": 13542,
      "type": "SCALAR"
    },
    {
      "bufferView": 2,
      "byteOffset": 512832,
      "componentType": 5126,
      "count": 10,
      "max": [
        6.5,
        -6.994418144226074,
        1.1366770280574201e-07
      ],
      "min": [
        -6.5,
        -9.994418144226074,
        -8.578596748520795e-07
      ],
      "type": "VEC3"
    },
    {
      "bufferView": 2,
      "byteOffset": 512952,
      "componentType": 5126,
      "count": 10,
      "max": [
        0.0,
        0.0,
        1.0
      ],
      "min": [
        0.0,
        0.0,
        1.0
      ],
      "type": "VEC3"
    },
    {
      "bufferView": 1,
      "byteOffset": 170944,
      "componentType": 5126,
      "count": 10,
      "max": [
        1.0,
        1.0
      ],
      "min": [
        0.0,
        0.0
      ],
      "type": "VEC2"
    },
    {
      "bufferView": 0,
      "byteOffset": 259128,
      "componentType": 5125,
      "count": 18,
      "type": "SCALAR"
    },
    {
      "bufferView": 2,
      "byteOffset": 513072,
      "componentType": 5126,
      "count": 48,
      "max": [
        6.5,
        9.005581855773926,
        1.6394239992223447e-06
      ],
      "min": [
        -6.5,
        -5.994418144226074,
        1.4652370339263143e-07
      ],
      "type": "VEC3"
    },
    {
      "bufferView": 2,
      "byteOffset": 513648,
      "componentType": 5126,
      "count": 48,
      "max": [
        0.0,
        -0.0,
        1.0
      ],
      "min": [
        0.0,
        -0.0,
        1.0
      ],
      "type": "VEC3"
    },
    {
      "bufferView": 1,
      "byteOffset": 171024,
      "componentType": 5126,
      "count": 48,
      "max": [
        1.0,
        1.0
      ],
      "min": [
        0.0,
        0.0
      ],
      "type": "VEC2"
    },
    {
      "bufferView": 0,
      "byteOffset": 259200,
      "componentType": 5125,
      "count": 96,
      "type": "SCALAR"
    },
    {
      "bufferView": 2,
      "byteOffset": 514224,
      "componentType": 5126,
      "count": 229,
      "max": [
        0.05945746973156929,
        0.05264410004019737,
        0.11859650164842606
      ],
      "min": [
        -0.055659908801317215,
        -0.06480727344751358,
        0.008289262652397156
      ],
      "type": "VEC3"
    },
    {
      "bufferView": 2,
      "byteOffset": 516972,
      "componentType": 5126,
      "count": 229,
      "max": [
        0.9981927871704102,
        0.9983865022659302,
        0.9851201772689819
      ],
      "min": [
        -0.9512208700180054,
        -0.9919806122779846,
        -0.8951206803321838
      ],
      "type": "VEC3"
    },
    {
      "bufferView": 1,
      "byteOffset": 171408,
      "componentType": 5126,
      "count": 229,
      "max": [
        -0.7770093083381653,
        0.614657998085022
      ],
      "min": [
        -0.891610324382782,
        0.3855499029159546
      ],
      "type": "VEC2"
    },
    {
      "bufferView": 0,
      "byteOffset": 259584,
      "componentType": 5125,
      "count": 750,
      "type": "SCALAR"
    },
    {
      "bufferView": 2,
      "byteOffset": 519720,
      "componentType": 5126,
      "count": 32,
      "max": [
        6.144656181335449,
        8.664133071899414,
        0.3007934093475342
      ],
      "min": [
        -6.149281978607178,
        -8.670525550842285,
        0.14055350422859192
      ],
      "type": "VEC3"
    },
    {
      "bufferView": 2,
      "byteOffset": 520104,
      "componentType": 5126,
      "count": 32,
      "max": [
        0.9892435669898987,
        0.20923569798469543,
        2.861022494471399e-06
      ],
      "min": [
        -0.9915074706077576,
        -0.1504315882921219,
        -2.980231556648505e-06
      ],
      "type": "VEC3"
    },
    {
      "bufferView": 1,
      "byteOffset": 173240,
      "componentType": 5126,
      "count": 32,
      "max": [
        1.0,
        1.0
      ],
      "min": [
        0.0,
        0.0
      ],
      "type": "VEC2"
    },
    {
      "bufferView": 0,
      "byteOffset": 262584,
      "componentType": 5125,
      "count": 48,
      "type": "SCALAR"
    },
    {
      "bufferView": 2,
      "byteOffset": 520488,
      "componentType": 5126,
      "count": 32,
      "max": [
        6.144655227661133,
        8.664143562316895,
        0.30079609155654907
      ],
      "min": [
        -6.149846076965332,
        -8.670525550842285,
        0.14055350422859192
      ],
      "type": "VEC3"
    },
    {
      "bufferView": 2,
      "byteOffset": 520872,
      "componentType": 5126,
      "count": 32,
      "max": [
        0.9915118217468262,
        0.15042176842689514,
        2.741813887041644e-06
      ],
      "min": [
        -0.9892407059669495,
        -0.2092672735452652,
        -4.231930233800085e-06
      ],
      "type": "VEC3"
    },
    {
      "bufferView": 1,
      "byteOffset": 173496,
      "componentType": 5126,
      "count": 32,
      "max": [
        1.0,
        1.0
      ],
      "min": [
        0.0,
        0.0
      ],
      "type": "VEC2"
    },
    {
      "bufferView": 0,
      "byteOffset": 262776,
      "componentType": 5125,
      "count": 48,
      "type": "SCALAR"
    },
    {
      "bufferView": 2,
      "byteOffset": 521256,
      "componentType": 5126,
      "count": 54,
      "max": [
        6.5,
        10.005579948425293,
        1.4523900517815491e-06
      ],
      "min": [
        -6.5,
        -6.994418144226074,
        1.4652370339263143e-07
      ],
      "type": "VEC3"
    },
    {
      "bufferView": 2,
      "byteOffset": 521904,
      "componentType": 5126,
      "count": 54,
      "max": [
        2.965989898129351e-09,
        -0.0,
        1.0
      ],
      "min": [
        0.0,
        -3.588544019502305e-16,
        1.0
      ],
      "type": "VEC3"
    },
    {
      "bufferView": 1,
      "byteOffset": 173752,
      "componentType": 5126,
      "count": 54,
      "max": [
        1.0,
        1.0
      ],
      "min": [
        0.0,
        0.0
      ],
      "type": "VEC2"
    },
    {
      "bufferView": 0,
      "byteOffset": 262968,
      "componentType": 5125,
      "count": 108,
      "type": "SCALAR"
    }
  ],
  "asset": {
    "extras": {
      "author": "chofervirtual132 (https://sketchfab.com/elchofervirtual132)",
      "license": "CC-BY-4.0 (http://creativecommons.org/licenses/by/4.0/)",
      "source": "https://sketchfab.com/3d-models/professional-soccer-field-188cdebf833042618cf55565023b7d9a",
      "title": "Professional Soccer Field"
    },
    "generator": "Sketchfab-16.59.0",
    "version": "2.0"
  },
  "bufferViews": [
    {
      "buffer": 0,
      "byteLength": 263400,
      "name": "floatBufferViews",
      "target": 34963
    },
    {
      "buffer": 0,
      "byteLength": 174184,
      "byteOffset": 263400,
      "byteStride": 8,
      "name": "floatBufferViews",
      "target": 34962
    },
    {
      "buffer": 0,
      "byteLength": 522552,
      "byteOffset": 437584,
      "byteStride": 12,
      "name": "floatBufferViews",
      "target": 34962
    }
  ],
  "buffers": [
    {
      "byteLength": 960136,
      "uri": "scene.bin"
    }
  ],
  "materials": [
    {
      "doubleSided": true,
      "name": "Default",
      "pbrMetallicRoughness": {
        "metallicFactor": 0.0,
        "roughnessFactor": 0.6
      }
    },
    {
      "doubleSided": true,
      "name": "Material",
      "pbrMetallicRoughness": {
        "baseColorFactor": [
          0.019901514074820853,
          0.4764731002454491,
          0.005553909163398149,
          1.0
        ],
        "metallicFactor": 0.0,
        "roughnessFactor": 0.6
      }
    },
    {
      "doubleSided": true,
      "name": "Material_1",
      "pbrMetallicRoughness": {
        "baseColorFactor": [
          0.002076370396197454,
          0.7437788546120077,
          0.09552652901025128,
          1.0
        ],
        "metallicFactor": 0.0,
        "roughnessFactor": 0.6
      }
    },
    {
      "doubleSided": true,
      "name": "Material_2",
      "pbrMetallicRoughness": {
        "baseColorFactor": [
          0.0,
          0.0,
          0.0,
          1.0
        ],
        "metallicFactor": 0.0,
        "roughnessFactor": 0.6
      }
    },
    {
      "doubleSided": true,
      "name": "Material_3",
      "pbrMetallicRoughness": {
        "baseColorFactor": [
          0.8197454789917538,
          0.821609878138384,
          0.010731827589601341,
          1.0
        ],
        "metallicFactor": 0.0,
        "roughnessFactor": 0.6
      }
    },
    {
      "doubleSided": true,
      "name": "Material_4",
      "pbrMetallicRoughness": {
        "baseColorFactor": [
          0.7951637893295116,
          0.340641596665907,
          0.0056742950981356535,
          1.0
        ],
        "metallicFactor": 0.0,
        "roughnessFactor": 0.6
      }
    }
  ],
  "meshes": [
    {
      "name": "Object_0",
      "primitives": [
        {
          "attributes": {
            "NORMAL": 1,
            "POSITION": 0,
            "TEXCOORD_0": 2
          },
          "indices": 3,
          "material": 1,
          "mode": 4
        }
      ]
    },
    {
      "name": "Object_1",
      "primitives": [
        {
          "attributes": {
            "NORMAL": 5,
            "POSITION": 4,
            "TEXCOORD_0": 6
          },
          "indices": 7,
          "material": 0,
          "mode": 4
        }
      ]
    },
    {
      "name": "Object_2",
      "primitives": [
        {
          "attributes": {
            "NORMAL": 9,
            "POSITION": 8,
            "TEXCOORD_0": 10
          },
          "indices": 11,
          "material": 0,
          "mode": 4
        }
      ]
    },
    {
      "name": "Object_3",
      "primitives": [
        {
          "attributes": {
            "NORMAL": 13,
            "POSITION": 12,
            "TEXCOORD_0": 14
          },
          "indices": 15,
          "material": 0,
          "mode": 4
        }
      ]
    },
    {
      "name": "Object_4",
      "primitives": [
        {
          "attributes": {
            "NORMAL": 17,
            "POSITION": 16,
            "TEXCOORD_0": 18
          },
          "indices": 19,
          "material": 2,
          "mode": 4
        }
      ]
    },
    {
      "name": "Object_5",
      "primitives": [
        {
          "attributes": {
            "NORMAL": 21,
            "POSITION": 20,
            "TEXCOORD_0": 22
          },
          "indices": 23,
          "material": 2,
          "mode": 4
        }
      ]
    },
    {
      "name": "Object_6",
      "primitives": [
        {
          "attributes": {
            "NORMAL": 25,
            "POSITION": 24,
            "TEXCOORD_0": 26
          },
          "indices": 27,
          "material": 3,
          "mode": 4
        }
      ]
    },
    {
      "name": "Object_7",
      "primitives": [
        {
          "attributes": {
            "NORMAL": 29,
            "POSITION": 28,
            "TEXCOORD_0": 30
          },
          "indices": 31,
          "material": 4,
          "mode": 4
        }
      ]
    },
    {
      "name": "Object_8",
      "primitives": [
        {
          "attributes": {
            "NORMAL": 33,
            "POSITION": 32,
            "TEXCOORD_0": 34
          },
          "indices": 35,
          "material": 5,
          "mode": 4
        }
      ]
    },
    {
      "name": "Object_9",
      "primitives": [
        {
          "attributes": {
            "NORMAL": 37,
            "POSITION": 36,
            "TEXCOORD_0": 38
          },
          "indices": 39,
          "material": 1,
          "mode": 4
        }
      ]
    }
  ],
  "nodes": [
    {
      "children": [
        1
      ],
      "matrix": [
        2.3629488945007324,
        -3.7999115741395833e-16,
        -3.799911574139585e-16,
        0.0,
        -3.7999115741395842e-16,
        9.04671211151413e-16,
        -2.3629488945007324,
        0.0,
        3.7999115741395842e-16,
        2.3629488945007324,
        9.04671211151413e-16,
        0.0,
        0.0,
        0.0,
        0.0,
        1.0
      ],
      "name": "Sketchfab_model"
    },
    {
      "children": [
        2,
        3,
        4,
        5,
        6,
        7,
        8,
        9,
        10,
        11
      ],
      "name": "Cancha.obj.cleaner.materialmerger.gles"
    },
    {
      "mesh": 0,
      "name": "Object_2"
    },
    {
      "mesh": 1,
      "name": "Object_3"
    },
    {
      "mesh": 2,
      "name": "Object_4"
    },
    {
      "mesh": 3,
      "name": "Object_5"
    },
    {
      "mesh": 4,
      "name": "Object_6"
    },
    {
      "mesh": 5,
      "name": "Object_7"
    },
    {
      "mesh": 6,
      "name": "Object_8"
    },
    {
      "mesh": 7,
      "name": "Object_9"
    },
    {
      "mesh": 8,
      "name": "Object_10"
    },
    {
      "mesh": 9,
      "name": "Object_11"
    }
  ],
  "scene": 0,
  "scenes": [
    {
      "name": "Sketchfab_Scene",
      "nodes": [
        0
      ]
    }
  ]
}
